<svg id="Layer_1" data-name="Layer 1" xmlns="http://www.w3.org/2000/svg" viewBox="0 0 398.73 24.93"><title>underline</title><path d="M415.2,479.34c-21.49,0-43,.06-64.47-.11-2,0-4-1.48-6.05-2.27,2-.63,4-1.82,6-1.82q65-.17,129.94,0c1.46,0,2.92,1.51,4.38,2.31-1.43.62-2.86,1.79-4.3,1.79C458.85,479.38,437,479.35,415.2,479.34Z" transform="translate(-86.24 -465.1)"/><path d="M155.46,479.34c-21.64,0-43.29,0-64.93-.08-1.44,0-2.86-1.26-4.29-1.94,1.37-.75,2.73-2.16,4.09-2.16q65.19-.18,130.38,0c1.52,0,3,1.44,4.56,2.21-1.45.66-2.9,1.84-4.37,1.87-8.16.19-16.32.1-24.48.1Z" transform="translate(-86.24 -465.1)"/><path d="M265.56,483.89c-7.35-.72-11.74-2.12-14.48-3.36a7.93,7.93,0,0,0-5.19-.95c-2.36.52-2.52,2.12-4.82,2.68-1.91.46-3.77.12-6.95-1.66-1.8-1-3.65-1.93-5.48-2.88,1.73-1.07,3.45-2.14,5.18-3.18.09-.06.3.1.46.15,1.67.52,3.68-2.53,6.05-2.67,2.19-.13,2.63,2.5,5.67,3.13,1.5.31,2.43-.14,5-.93a95.3,95.3,0,0,1,9.29-2.2c3.45-.63,6.56-1.21,10.26-.44.61.12,8.4,1.82,8.72,5.36.27,3-4.6,6-8.51,6.86A15.13,15.13,0,0,1,265.56,483.89Z" transform="translate(-86.24 -465.1)"/><path d="M337.6,478.5" transform="translate(-86.24 -465.1)"/><path d="M303.83,471c6.23-.42,14.63,2.5,18,3.66,0,0,4.11,1.09,6,.12a4.81,4.81,0,0,0,2-2c.08-.15.19-.33.33-.37a3.65,3.65,0,0,1,2.58-.66c1.49.09,5.3,2,9.92,5.3-.7,1.51-1.73,3.17-3,3.17-.67,0-.75-.58-1.48-.65-3.18-.27-5.58,6.49-8.91,1.88a5,5,0,0,0-2.24-1.87,6.42,6.42,0,0,0-4.28.18c-5.4,1.93-15.8,5.64-22.8,3.48-3.49-1.08-7.11-3.91-6.91-6.39C293.19,473.82,298.93,471.29,303.83,471Z" transform="translate(-86.24 -465.1)"/><path d="M286,490c-5.42-8.22-6.39-16.58,0-24.93C291.77,473.3,291.05,481.68,286,490Z" transform="translate(-86.24 -465.1)"/></svg>